<?xml version="1.0" standalone="no"?>
<!DOCTYPE svg PUBLIC "-//W3C//DTD SVG 20010904//EN"
 "http://www.w3.org/TR/2001/REC-SVG-20010904/DTD/svg10.dtd">
<svg version="1.0" xmlns="http://www.w3.org/2000/svg"
 width="400.000000pt" height="400.000000pt" viewBox="0 0 400.000000 400.000000"
 preserveAspectRatio="xMidYMid meet">
<metadata>
Created by potrace 1.14, written by Peter Selinger 2001-2017
</metadata>
<g transform="translate(0.000000,400.000000) scale(0.100000,-0.100000)"
fill="#000000" stroke="none">
<path d="M0 2000 l0 -2000 2000 0 2000 0 0 2000 0 2000 -2000 0 -2000 0 0
-2000z m2047 1392 c7 -4 234 -475 506 -1047 l494 -1040 142 -5 c111 -4 144 -8
151 -20 6 -9 10 -150 10 -332 0 -275 -2 -319 -16 -332 -13 -14 -62 -16 -381
-16 -304 0 -369 2 -382 14 -9 8 -239 481 -511 1050 l-494 1036 -223 0 c-218 0
-222 0 -237 22 -24 33 -24 623 0 656 l15 22 457 0 c251 0 462 -4 469 -8z
m-547 -1108 c24 -28 380 -767 380 -788 0 -27 -398 -867 -418 -883 -12 -10
-107 -13 -398 -13 -334 0 -385 2 -398 16 -9 8 -16 22 -16 31 0 15 749 1589
776 1631 17 26 56 29 74 6z"/>
<path d="M1200 3050 l0 -250 207 0 c167 0 210 -3 223 -15 8 -8 238 -480 510
-1050 l494 -1035 308 0 308 0 0 250 0 250 -128 0 c-76 0 -132 4 -138 10 -6 6
-233 479 -505 1050 l-494 1040 -392 0 -393 0 0 -250z"/>
<path d="M1146 1464 c-176 -368 -330 -690 -343 -717 l-23 -47 311 2 311 3 184
389 c101 213 184 395 183 405 0 9 -69 155 -152 325 l-152 308 -319 -668z"/>
</g>
</svg>
